<?xml version="1.0" encoding="UTF-8"?>
<svg id="Calque_2_-_copie_4" data-name="Calque 2 - copie 4" xmlns="http://www.w3.org/2000/svg" viewBox="0 0 1537.25 968.54">
  <defs>
    <style>
      .cls-1 {
        fill: #040050;
      }

      .cls-2 {
        fill: #ff2446;
      }
    </style>
  </defs>
  <g>
    <path class="cls-2" d="M749.45,14.07c0,30.79,0,79.65,0,111.52,0,6.62,7.99,9.9,12.67,5.23l35.15-35.15h33.71c7.8,0,14.12-6.32,14.12-14.12V14.13c0-7.8-6.32-14.12-14.12-14.13h-67.41c-7.8,0-14.12,6.27-14.12,14.07"/>
    <polygon class="cls-1" points="788 697.94 792.9 697.94 792.9 760.74 831.6 760.74 831.6 765.16 788 765.16 788 697.94"/>
    <g>
      <path class="cls-1" d="M844.94,694.73c.77.8,1.15,1.75,1.15,2.83,0,.64-.08,1.31-.24,2.02-.16.71-.37,1.51-.63,2.4l-3.74,13.06h-3.46l3.17-13.54c-.96-.26-1.73-.72-2.3-1.39-.58-.68-.86-1.52-.86-2.55,0-1.15.39-2.11,1.15-2.88.77-.77,1.73-1.15,2.88-1.15s2.11.4,2.88,1.2"/>
      <path class="cls-1" d="M888.24,695.54h6.91l-15.07,11.33h-5.18l13.34-11.33ZM870.87,721.23c-2.82,1.57-5.08,3.78-6.77,6.63-1.7,2.85-2.68,6.07-2.93,9.65h38.41c-.19-3.58-1.15-6.78-2.88-9.6-1.73-2.82-4.01-5.02-6.82-6.63-2.82-1.6-5.99-2.4-9.51-2.4s-6.69.79-9.51,2.35M904.18,741.25h-43.11c.13,3.91,1.12,7.38,2.98,10.42,1.86,3.04,4.37,5.39,7.54,7.06,3.17,1.67,6.74,2.5,10.71,2.5,3.26,0,6.29-.59,9.07-1.78,2.78-1.18,5.11-2.92,6.96-5.23l2.79,3.17c-2.17,2.63-4.92,4.65-8.21,6.05-3.3,1.41-6.86,2.11-10.71,2.11-4.99,0-9.44-1.09-13.35-3.27-3.9-2.18-6.96-5.19-9.17-9.03-2.21-3.84-3.32-8.22-3.32-13.16s1.04-9.23,3.13-13.1c2.08-3.87,4.94-6.9,8.59-9.08,3.65-2.17,7.75-3.27,12.29-3.27s8.63,1.07,12.24,3.22c3.61,2.15,6.46,5.14,8.55,8.98,2.08,3.84,3.12,8.19,3.12,13.06l-.1,1.34Z"/>
      <path class="cls-1" d="M925.98,762.28c-3.84-2.17-6.85-5.2-9.03-9.07-2.17-3.87-3.27-8.24-3.27-13.11s1.09-9.33,3.27-13.2c2.18-3.87,5.19-6.88,9.03-9.02,3.84-2.15,8.19-3.22,13.06-3.22,4.03,0,7.69.79,10.99,2.35,3.29,1.57,5.97,3.86,8.01,6.87l-3.55,2.59c-1.8-2.5-4.02-4.37-6.68-5.61-2.66-1.25-5.59-1.87-8.78-1.87-3.91,0-7.41.88-10.52,2.64-3.11,1.76-5.54,4.24-7.29,7.44-1.76,3.2-2.64,6.88-2.64,11.04s.88,7.84,2.64,11.04c1.76,3.21,4.19,5.68,7.29,7.44,3.1,1.76,6.61,2.64,10.52,2.64,3.2,0,6.12-.63,8.78-1.87,2.66-1.25,4.88-3.12,6.68-5.62l3.55,2.59c-2.05,3.01-4.72,5.3-8.01,6.87-3.3,1.57-6.96,2.36-10.99,2.36-4.87,0-9.22-1.09-13.06-3.27"/>
      <path class="cls-1" d="M1000.06,758.53c3.04-1.79,5.44-4.29,7.2-7.49,1.76-3.2,2.64-6.85,2.64-10.95s-.88-7.75-2.64-10.95c-1.76-3.2-4.16-5.69-7.2-7.48-3.04-1.8-6.48-2.69-10.32-2.69s-7.28.9-10.32,2.69c-3.04,1.79-5.44,4.29-7.2,7.48-1.76,3.2-2.64,6.86-2.64,10.95s.88,7.75,2.64,10.95c1.76,3.2,4.16,5.7,7.2,7.49,3.04,1.8,6.48,2.69,10.32,2.69s7.28-.89,10.32-2.69M976.92,762.28c-3.81-2.17-6.8-5.2-8.98-9.07-2.17-3.87-3.27-8.24-3.27-13.11s1.09-9.23,3.27-13.1c2.18-3.87,5.17-6.9,8.98-9.07,3.81-2.18,8.08-3.27,12.82-3.27s9.01,1.09,12.82,3.27c3.81,2.17,6.8,5.2,8.98,9.07,2.17,3.87,3.27,8.24,3.27,13.1s-1.09,9.24-3.27,13.11c-2.18,3.87-5.17,6.9-8.98,9.07-3.81,2.17-8.08,3.27-12.82,3.27s-9.01-1.09-12.82-3.27"/>
    </g>
    <rect class="cls-1" x="1029.69" y="693.91" width="4.8" height="71.25"/>
    <g>
      <path class="cls-1" d="M1063.77,721.23c-2.82,1.57-5.07,3.78-6.77,6.63-1.69,2.85-2.67,6.07-2.93,9.65h38.41c-.19-3.58-1.15-6.78-2.88-9.6-1.73-2.82-4-5.02-6.82-6.63-2.82-1.6-5.99-2.4-9.51-2.4s-6.69.79-9.51,2.35M1097.09,741.25h-43.11c.13,3.91,1.12,7.38,2.98,10.42,1.86,3.04,4.37,5.39,7.54,7.06,3.17,1.67,6.74,2.5,10.71,2.5,3.26,0,6.29-.59,9.07-1.78,2.78-1.18,5.11-2.92,6.96-5.23l2.79,3.17c-2.17,2.63-4.91,4.65-8.21,6.05-3.3,1.41-6.86,2.11-10.71,2.11-4.99,0-9.44-1.09-13.35-3.27-3.9-2.18-6.96-5.19-9.17-9.03-2.21-3.84-3.31-8.22-3.31-13.16s1.04-9.23,3.13-13.1c2.08-3.87,4.94-6.9,8.59-9.08,3.65-2.17,7.75-3.27,12.29-3.27s8.63,1.07,12.24,3.22c3.61,2.15,6.46,5.14,8.55,8.98,2.08,3.84,3.12,8.19,3.12,13.06l-.1,1.34Z"/>
      <path class="cls-1" d="M1166.65,758.53c3.04-1.79,5.44-4.29,7.21-7.49,1.76-3.2,2.64-6.85,2.64-10.95s-.88-7.75-2.64-10.95c-1.76-3.2-4.16-5.69-7.21-7.48-3.04-1.8-6.48-2.69-10.32-2.69s-7.28.9-10.32,2.69c-3.04,1.79-5.44,4.29-7.2,7.48-1.76,3.2-2.64,6.86-2.64,10.95s.88,7.75,2.64,10.95c1.76,3.2,4.16,5.7,7.2,7.49,3.04,1.8,6.48,2.69,10.32,2.69s7.28-.89,10.32-2.69M1181.3,693.91v71.25h-4.7v-11.81c-1.98,3.91-4.77,6.91-8.36,9.02-3.58,2.12-7.65,3.17-12.19,3.17s-8.9-1.09-12.67-3.27c-3.78-2.17-6.74-5.19-8.89-9.03-2.14-3.84-3.22-8.22-3.22-13.16s1.07-9.33,3.22-13.2c2.15-3.87,5.11-6.88,8.89-9.03,3.77-2.14,8-3.22,12.67-3.22s8.5,1.06,12.05,3.17c3.55,2.11,6.35,5.06,8.4,8.83v-32.74h4.8Z"/>
      <path class="cls-1" d="M1210.58,721.23c-2.82,1.57-5.07,3.78-6.77,6.63-1.7,2.85-2.68,6.07-2.93,9.65h38.41c-.19-3.58-1.15-6.78-2.88-9.6-1.73-2.82-4.01-5.02-6.82-6.63-2.82-1.6-5.99-2.4-9.51-2.4s-6.69.79-9.51,2.35M1243.9,741.25h-43.11c.13,3.91,1.12,7.38,2.98,10.42,1.86,3.04,4.37,5.39,7.54,7.06,3.17,1.67,6.74,2.5,10.71,2.5,3.26,0,6.29-.59,9.07-1.78,2.78-1.18,5.11-2.92,6.96-5.23l2.79,3.17c-2.17,2.63-4.91,4.65-8.21,6.05-3.3,1.41-6.86,2.11-10.71,2.11-4.99,0-9.44-1.09-13.35-3.27-3.9-2.18-6.96-5.19-9.17-9.03-2.21-3.84-3.31-8.22-3.31-13.16s1.04-9.23,3.13-13.1c2.08-3.87,4.94-6.9,8.59-9.08,3.65-2.17,7.75-3.27,12.29-3.27s8.63,1.07,12.24,3.22c3.61,2.15,6.46,5.14,8.55,8.98,2.08,3.84,3.12,8.19,3.12,13.06l-.1,1.34Z"/>
      <path class="cls-1" d="M1308.42,761.99c-1.22,1.15-2.74,2.03-4.56,2.64-1.83.6-3.73.91-5.71.91-4.36,0-7.72-1.2-10.08-3.6-2.37-2.4-3.56-5.75-3.56-10.03v-32.75h-9.22v-4.13h9.22v-10.95h4.8v10.95h15.94v4.13h-15.94v32.27c0,3.26.78,5.74,2.35,7.44,1.57,1.7,3.89,2.54,6.97,2.54s5.73-.93,7.78-2.78l2.01,3.36Z"/>
      <path class="cls-1" d="M1351.01,758.53c3.04-1.79,5.44-4.29,7.2-7.49,1.76-3.2,2.64-6.85,2.64-10.95s-.88-7.75-2.64-10.95c-1.76-3.2-4.16-5.69-7.2-7.48-3.04-1.8-6.48-2.69-10.32-2.69s-7.28.9-10.32,2.69c-3.04,1.79-5.44,4.29-7.2,7.48-1.76,3.2-2.64,6.86-2.64,10.95s.88,7.75,2.64,10.95c1.76,3.2,4.16,5.7,7.2,7.49,3.04,1.8,6.48,2.69,10.32,2.69s7.28-.89,10.32-2.69M1327.87,762.28c-3.81-2.17-6.8-5.2-8.98-9.07-2.17-3.87-3.27-8.24-3.27-13.11s1.09-9.23,3.27-13.1c2.18-3.87,5.17-6.9,8.98-9.07,3.81-2.18,8.08-3.27,12.82-3.27s9.01,1.09,12.82,3.27c3.81,2.17,6.8,5.2,8.98,9.07,2.17,3.87,3.27,8.24,3.27,13.1s-1.09,9.24-3.27,13.11c-2.17,3.87-5.17,6.9-8.98,9.07-3.81,2.17-8.08,3.27-12.82,3.27s-9.01-1.09-12.82-3.27"/>
      <path class="cls-1" d="M1424.51,715.04v50.12h-4.61v-10.76c-1.67,3.53-4.13,6.26-7.39,8.21-3.27,1.95-7.11,2.93-11.53,2.93-6.53,0-11.65-1.83-15.36-5.48-3.72-3.65-5.57-8.89-5.57-15.75v-29.28h4.8v28.9c0,5.63,1.44,9.92,4.32,12.86,2.88,2.95,6.94,4.42,12.19,4.42,5.63,0,10.1-1.76,13.39-5.28,3.29-3.52,4.95-8.26,4.95-14.21v-26.69h4.8Z"/>
      <path class="cls-1" d="M1446.02,763.72c-3.65-1.21-6.5-2.75-8.54-4.61l2.2-3.84c2.05,1.73,4.69,3.17,7.92,4.33,3.23,1.15,6.61,1.72,10.13,1.72,5.05,0,8.79-.83,11.19-2.49,2.4-1.66,3.6-3.97,3.6-6.91,0-2.11-.66-3.78-1.97-4.99-1.31-1.22-2.93-2.11-4.85-2.69-1.92-.57-4.58-1.18-7.97-1.82-3.97-.71-7.17-1.47-9.6-2.31-2.43-.83-4.51-2.18-6.24-4.04-1.73-1.85-2.59-4.41-2.59-7.68,0-3.96,1.65-7.25,4.94-9.84,3.3-2.59,7.99-3.88,14.07-3.88,3.2,0,6.37.45,9.51,1.34,3.14.89,5.7,2.08,7.68,3.55l-2.2,3.84c-2.05-1.47-4.39-2.59-7.01-3.36-2.63-.77-5.31-1.15-8.07-1.15-4.67,0-8.19.87-10.56,2.59-2.37,1.73-3.55,4-3.55,6.82,0,2.24.67,3.98,2.02,5.23,1.34,1.25,2.99,2.18,4.94,2.79,1.96.61,4.69,1.26,8.21,1.96,3.9.71,7.06,1.46,9.46,2.26,2.4.8,4.43,2.1,6.1,3.89,1.66,1.8,2.5,4.26,2.5,7.39,0,4.16-1.73,7.49-5.19,9.99-3.46,2.49-8.32,3.75-14.6,3.75-4.03,0-7.87-.61-11.52-1.83"/>
    </g>
    <rect class="cls-1" x="786.47" y="793.1" width="4.8" height="71.25"/>
    <g>
      <path class="cls-1" d="M820.26,820.42c-2.82,1.57-5.08,3.78-6.77,6.63-1.7,2.85-2.68,6.07-2.93,9.65h38.41c-.19-3.58-1.15-6.79-2.88-9.6-1.73-2.82-4.01-5.02-6.82-6.63-2.82-1.6-5.99-2.4-9.51-2.4s-6.69.79-9.51,2.35M853.58,840.44h-43.11c.13,3.91,1.12,7.38,2.98,10.42,1.86,3.04,4.37,5.39,7.54,7.06,3.17,1.67,6.74,2.5,10.71,2.5,3.26,0,6.29-.59,9.07-1.78,2.78-1.18,5.11-2.92,6.96-5.23l2.79,3.17c-2.17,2.63-4.91,4.64-8.21,6.05-3.3,1.41-6.86,2.11-10.71,2.11-4.99,0-9.44-1.09-13.35-3.27-3.9-2.18-6.96-5.19-9.17-9.03-2.21-3.84-3.32-8.22-3.32-13.16s1.04-9.23,3.13-13.1c2.08-3.87,4.94-6.9,8.59-9.07,3.65-2.17,7.75-3.27,12.29-3.27s8.63,1.07,12.24,3.22c3.61,2.15,6.46,5.14,8.55,8.98,2.08,3.84,3.12,8.19,3.12,13.06l-.1,1.34Z"/>
      <path class="cls-1" d="M869.52,862.91c-3.65-1.21-6.5-2.75-8.54-4.61l2.2-3.84c2.05,1.73,4.69,3.17,7.92,4.32,3.23,1.15,6.61,1.72,10.13,1.72,5.05,0,8.79-.83,11.19-2.49,2.4-1.66,3.6-3.97,3.6-6.92,0-2.11-.66-3.77-1.97-4.99-1.31-1.22-2.93-2.11-4.85-2.69-1.92-.58-4.58-1.18-7.97-1.83-3.97-.7-7.17-1.47-9.6-2.31-2.43-.83-4.51-2.17-6.24-4.04-1.73-1.85-2.59-4.41-2.59-7.68,0-3.96,1.65-7.25,4.94-9.84,3.29-2.59,7.99-3.89,14.07-3.89,3.2,0,6.37.45,9.51,1.34,3.14.9,5.7,2.08,7.68,3.56l-2.2,3.84c-2.05-1.47-4.39-2.59-7.01-3.36-2.63-.76-5.31-1.15-8.07-1.15-4.67,0-8.19.87-10.56,2.59-2.37,1.73-3.55,4-3.55,6.82,0,2.24.67,3.99,2.02,5.23,1.34,1.25,2.99,2.17,4.94,2.79,1.96.61,4.69,1.26,8.21,1.96,3.9.71,7.05,1.46,9.46,2.26,2.4.8,4.43,2.1,6.1,3.89,1.66,1.79,2.5,4.26,2.5,7.39,0,4.16-1.73,7.49-5.19,9.99-3.46,2.49-8.32,3.75-14.6,3.75-4.04,0-7.87-.61-11.52-1.83"/>
      <path class="cls-1" d="M1015.62,819.31c3.55,3.65,5.33,8.9,5.33,15.75v29.29h-4.8v-28.9c0-5.63-1.38-9.92-4.13-12.87-2.75-2.94-6.59-4.41-11.52-4.41-5.64,0-10.1,1.76-13.4,5.28-3.29,3.52-4.95,8.26-4.95,14.21v26.7h-4.8v-28.9c0-5.63-1.38-9.92-4.13-12.87-2.75-2.94-6.59-4.41-11.52-4.41-5.64,0-10.1,1.76-13.4,5.28-3.29,3.52-4.95,8.26-4.95,14.21v26.7h-4.8v-50.12h4.61v10.75c1.67-3.52,4.14-6.25,7.44-8.21,3.3-1.95,7.22-2.93,11.76-2.93s8.4,1.03,11.57,3.07c3.17,2.05,5.42,5.06,6.77,9.03,1.66-3.72,4.27-6.66,7.83-8.83,3.55-2.18,7.7-3.27,12.43-3.27,6.21,0,11.09,1.83,14.65,5.47"/>
      <path class="cls-1" d="M1066.94,794.73h6.92l-15.08,11.33h-5.18l13.34-11.33ZM1049.56,820.42c-2.82,1.57-5.07,3.78-6.77,6.63-1.7,2.85-2.68,6.07-2.93,9.65h38.41c-.19-3.58-1.15-6.79-2.88-9.6-1.73-2.82-4-5.02-6.82-6.63-2.82-1.6-5.99-2.4-9.51-2.4s-6.69.79-9.51,2.35M1082.88,840.44h-43.11c.13,3.91,1.12,7.38,2.98,10.42,1.86,3.04,4.37,5.39,7.54,7.06,3.17,1.67,6.74,2.5,10.71,2.5,3.26,0,6.29-.59,9.07-1.78,2.78-1.18,5.11-2.92,6.96-5.23l2.79,3.17c-2.17,2.63-4.91,4.64-8.21,6.05-3.3,1.41-6.87,2.11-10.71,2.11-4.99,0-9.44-1.09-13.35-3.27-3.9-2.18-6.96-5.19-9.17-9.03-2.21-3.84-3.32-8.22-3.32-13.16s1.04-9.23,3.13-13.1c2.08-3.87,4.94-6.9,8.59-9.07,3.65-2.17,7.75-3.27,12.29-3.27s8.63,1.07,12.24,3.22c3.61,2.15,6.46,5.14,8.55,8.98,2.08,3.84,3.12,8.19,3.12,13.06l-.1,1.34Z"/>
      <path class="cls-1" d="M1122.54,861.18c-1.22,1.15-2.74,2.03-4.56,2.64-1.82.61-3.73.92-5.71.92-4.36,0-7.72-1.2-10.08-3.6-2.37-2.4-3.56-5.75-3.56-10.03v-32.75h-9.22v-4.13h9.22v-10.95h4.8v10.95h15.94v4.13h-15.94v32.27c0,3.26.78,5.75,2.35,7.44,1.57,1.7,3.89,2.54,6.96,2.54s5.73-.93,7.78-2.78l2.02,3.36Z"/>
      <path class="cls-1" d="M1135.59,814.23h4.8v50.12h-4.8v-50.12ZM1135.21,800.93c-.77-.74-1.15-1.65-1.15-2.74s.39-2.01,1.15-2.79c.77-.77,1.7-1.15,2.79-1.15s2.01.37,2.78,1.1c.77.73,1.15,1.65,1.15,2.73s-.39,2.02-1.15,2.78c-.77.77-1.7,1.15-2.78,1.15s-2.02-.37-2.79-1.1"/>
      <path class="cls-1" d="M1169.39,820.42c-2.82,1.57-5.07,3.78-6.77,6.63-1.7,2.85-2.68,6.07-2.93,9.65h38.41c-.19-3.58-1.15-6.79-2.88-9.6-1.73-2.82-4-5.02-6.82-6.63-2.82-1.6-5.99-2.4-9.51-2.4s-6.69.79-9.51,2.35M1202.71,840.44h-43.11c.13,3.91,1.12,7.38,2.98,10.42,1.86,3.04,4.37,5.39,7.54,7.06,3.17,1.67,6.74,2.5,10.71,2.5,3.26,0,6.29-.59,9.07-1.78,2.78-1.18,5.11-2.92,6.96-5.23l2.79,3.17c-2.17,2.63-4.91,4.64-8.21,6.05-3.3,1.41-6.87,2.11-10.71,2.11-4.99,0-9.44-1.09-13.35-3.27-3.9-2.18-6.96-5.19-9.17-9.03-2.21-3.84-3.32-8.22-3.32-13.16s1.04-9.23,3.13-13.1c2.08-3.87,4.94-6.9,8.59-9.07,3.65-2.17,7.75-3.27,12.29-3.27s8.63,1.07,12.24,3.22c3.61,2.15,6.46,5.14,8.55,8.98,2.08,3.84,3.12,8.19,3.12,13.06l-.1,1.34Z"/>
      <path class="cls-1" d="M1229.31,816.77c3.27-1.95,7.24-2.93,11.9-2.93v4.7l-1.15-.09c-5.57,0-9.93,1.75-13.06,5.23-3.14,3.49-4.7,8.34-4.7,14.55v26.12h-4.8v-50.12h4.61v10.95c1.54-3.65,3.94-6.44,7.2-8.4"/>
      <path class="cls-1" d="M1256.28,862.91c-3.65-1.21-6.5-2.75-8.54-4.61l2.2-3.84c2.05,1.73,4.69,3.17,7.92,4.32,3.23,1.15,6.61,1.72,10.13,1.72,5.05,0,8.79-.83,11.19-2.49,2.4-1.66,3.6-3.97,3.6-6.92,0-2.11-.66-3.77-1.97-4.99-1.31-1.22-2.93-2.11-4.85-2.69-1.92-.58-4.58-1.18-7.97-1.83-3.97-.7-7.17-1.47-9.6-2.31-2.43-.83-4.51-2.17-6.24-4.04-1.73-1.85-2.59-4.41-2.59-7.68,0-3.96,1.65-7.25,4.94-9.84,3.3-2.59,7.99-3.89,14.07-3.89,3.2,0,6.37.45,9.51,1.34,3.14.9,5.7,2.08,7.68,3.56l-2.2,3.84c-2.05-1.47-4.39-2.59-7.01-3.36-2.63-.76-5.31-1.15-8.07-1.15-4.67,0-8.19.87-10.56,2.59-2.37,1.73-3.55,4-3.55,6.82,0,2.24.67,3.99,2.02,5.23,1.34,1.25,2.99,2.17,4.94,2.79,1.96.61,4.69,1.26,8.21,1.96,3.9.71,7.06,1.46,9.46,2.26,2.4.8,4.43,2.1,6.1,3.89,1.66,1.79,2.5,4.26,2.5,7.39,0,4.16-1.73,7.49-5.19,9.99-3.46,2.49-8.32,3.75-14.6,3.75-4.04,0-7.87-.61-11.52-1.83"/>
      <path class="cls-1" d="M1355.23,857.72c3.04-1.79,5.44-4.29,7.21-7.49,1.76-3.2,2.64-6.85,2.64-10.95s-.88-7.75-2.64-10.95c-1.76-3.2-4.16-5.69-7.21-7.49-3.04-1.79-6.48-2.69-10.32-2.69s-7.28.9-10.32,2.69c-3.04,1.79-5.44,4.29-7.2,7.49-1.76,3.2-2.64,6.86-2.64,10.95s.88,7.75,2.64,10.95c1.76,3.2,4.16,5.7,7.2,7.49,3.04,1.8,6.48,2.69,10.32,2.69s7.28-.89,10.32-2.69M1369.88,793.1v71.25h-4.7v-11.81c-1.99,3.91-4.77,6.91-8.36,9.02-3.58,2.12-7.64,3.17-12.19,3.17s-8.9-1.09-12.67-3.27c-3.78-2.17-6.74-5.19-8.89-9.03-2.14-3.84-3.22-8.22-3.22-13.16s1.07-9.33,3.22-13.2c2.15-3.87,5.11-6.88,8.89-9.02,3.77-2.14,8-3.22,12.67-3.22s8.5,1.06,12.05,3.17c3.55,2.11,6.35,5.06,8.4,8.84v-32.75h4.8Z"/>
      <path class="cls-1" d="M1398.97,820.42c-2.82,1.57-5.07,3.78-6.77,6.63-1.69,2.85-2.67,6.07-2.93,9.65h38.41c-.19-3.58-1.15-6.79-2.88-9.6-1.73-2.82-4.01-5.02-6.82-6.63-2.82-1.6-5.99-2.4-9.51-2.4s-6.69.79-9.51,2.35M1432.29,840.44h-43.11c.13,3.91,1.12,7.38,2.98,10.42,1.86,3.04,4.37,5.39,7.54,7.06,3.17,1.67,6.74,2.5,10.71,2.5,3.26,0,6.29-.59,9.07-1.78,2.78-1.18,5.1-2.92,6.96-5.23l2.79,3.17c-2.18,2.63-4.92,4.64-8.21,6.05-3.3,1.41-6.86,2.11-10.71,2.11-4.99,0-9.44-1.09-13.35-3.27-3.9-2.18-6.96-5.19-9.17-9.03-2.21-3.84-3.31-8.22-3.31-13.16s1.04-9.23,3.13-13.1c2.08-3.87,4.94-6.9,8.59-9.07,3.65-2.17,7.75-3.27,12.29-3.27s8.63,1.07,12.24,3.22c3.61,2.15,6.46,5.14,8.55,8.98,2.08,3.84,3.12,8.19,3.12,13.06l-.1,1.34Z"/>
    </g>
    <rect class="cls-1" x="1471.56" y="793.1" width="4.8" height="71.25"/>
    <g>
      <path class="cls-1" d="M1521.15,857.91c2.91-1.92,5.1-4.7,6.58-8.35v-9.41h-17.09c-4.93,0-8.5.9-10.71,2.69-2.21,1.8-3.31,4.26-3.31,7.39s1.21,5.84,3.65,7.73c2.43,1.89,5.85,2.83,10.27,2.83,4.16,0,7.7-.96,10.61-2.88M1527.54,818.59c3.33,3.17,4.99,7.83,4.99,13.97v31.78h-4.61v-8.93c-1.6,2.94-3.93,5.23-7.01,6.86-3.07,1.63-6.75,2.45-11.04,2.45-5.57,0-9.97-1.31-13.21-3.94-3.23-2.62-4.85-6.08-4.85-10.37s1.49-7.54,4.46-10.13c2.98-2.6,7.73-3.89,14.26-3.89h17.19v-4.03c0-4.67-1.27-8.22-3.79-10.66-2.53-2.43-6.23-3.65-11.09-3.65-3.33,0-6.52.58-9.55,1.73-3.04,1.15-5.62,2.69-7.73,4.61l-2.4-3.46c2.49-2.24,5.5-3.99,9.03-5.23,3.52-1.25,7.2-1.87,11.04-1.87,6.21,0,10.97,1.58,14.31,4.75"/>
      <path class="cls-1" d="M793.28,960.66c-3.84-2.18-6.85-5.2-9.03-9.07-2.17-3.87-3.27-8.25-3.27-13.11s1.09-9.33,3.27-13.2c2.18-3.87,5.19-6.88,9.03-9.02,3.84-2.15,8.19-3.22,13.06-3.22,4.03,0,7.7.79,10.99,2.35,3.3,1.57,5.97,3.86,8.02,6.87l-3.55,2.6c-1.79-2.5-4.02-4.37-6.68-5.62-2.66-1.25-5.59-1.87-8.78-1.87-3.91,0-7.41.88-10.52,2.64-3.1,1.76-5.54,4.24-7.29,7.44-1.76,3.2-2.64,6.88-2.64,11.04s.88,7.84,2.64,11.04c1.76,3.2,4.19,5.68,7.29,7.44,3.1,1.76,6.61,2.64,10.52,2.64,3.2,0,6.12-.62,8.78-1.87,2.66-1.25,4.88-3.12,6.68-5.62l3.55,2.59c-2.05,3.01-4.72,5.3-8.02,6.87-3.3,1.57-6.96,2.36-10.99,2.36-4.87,0-9.22-1.09-13.06-3.27"/>
      <path class="cls-1" d="M868.03,956.91c3.04-1.79,5.44-4.29,7.2-7.49,1.76-3.2,2.64-6.85,2.64-10.95s-.88-7.74-2.64-10.95c-1.76-3.2-4.16-5.7-7.2-7.49-3.04-1.79-6.48-2.69-10.32-2.69s-7.28.9-10.32,2.69c-3.04,1.79-5.44,4.29-7.2,7.49-1.76,3.21-2.64,6.86-2.64,10.95s.88,7.75,2.64,10.95c1.76,3.2,4.16,5.7,7.2,7.49,3.04,1.8,6.48,2.69,10.32,2.69s7.28-.89,10.32-2.69M844.89,960.66c-3.81-2.18-6.8-5.2-8.98-9.07-2.17-3.87-3.27-8.25-3.27-13.11s1.09-9.23,3.27-13.1c2.18-3.87,5.17-6.9,8.98-9.07,3.81-2.18,8.08-3.27,12.82-3.27s9.01,1.09,12.82,3.27c3.81,2.17,6.8,5.2,8.98,9.07,2.17,3.87,3.27,8.24,3.27,13.1s-1.09,9.24-3.27,13.11c-2.17,3.87-5.17,6.9-8.98,9.07-3.81,2.17-8.08,3.27-12.82,3.27s-9.01-1.09-12.82-3.27"/>
      <path class="cls-1" d="M975.29,918.51c3.55,3.65,5.33,8.9,5.33,15.75v29.29h-4.8v-28.9c0-5.63-1.38-9.92-4.13-12.87-2.75-2.94-6.59-4.41-11.52-4.41-5.64,0-10.1,1.76-13.4,5.28-3.3,3.52-4.95,8.26-4.95,14.21v26.7h-4.8v-28.9c0-5.63-1.38-9.92-4.13-12.87-2.75-2.94-6.59-4.41-11.52-4.41-5.64,0-10.1,1.76-13.4,5.28-3.3,3.52-4.95,8.26-4.95,14.21v26.7h-4.8v-50.12h4.61v10.75c1.67-3.52,4.14-6.25,7.44-8.21,3.3-1.95,7.22-2.93,11.76-2.93s8.4,1.03,11.57,3.07c3.17,2.05,5.42,5.06,6.77,9.03,1.66-3.72,4.27-6.66,7.83-8.83,3.55-2.18,7.69-3.27,12.43-3.27,6.21,0,11.09,1.83,14.64,5.47"/>
      <path class="cls-1" d="M1078.13,918.51c3.55,3.65,5.33,8.9,5.33,15.75v29.29h-4.8v-28.9c0-5.63-1.38-9.92-4.13-12.87-2.75-2.94-6.59-4.41-11.52-4.41-5.64,0-10.1,1.76-13.4,5.28-3.29,3.52-4.95,8.26-4.95,14.21v26.7h-4.8v-28.9c0-5.63-1.38-9.92-4.13-12.87-2.75-2.94-6.59-4.41-11.52-4.41-5.64,0-10.1,1.76-13.4,5.28-3.3,3.52-4.95,8.26-4.95,14.21v26.7h-4.8v-50.12h4.61v10.75c1.67-3.52,4.14-6.25,7.44-8.21,3.3-1.95,7.22-2.93,11.76-2.93s8.4,1.03,11.57,3.07c3.17,2.05,5.42,5.06,6.77,9.03,1.66-3.72,4.27-6.66,7.83-8.83,3.55-2.18,7.69-3.27,12.43-3.27,6.21,0,11.09,1.83,14.65,5.47"/>
      <path class="cls-1" d="M1147.79,913.42v50.12h-4.61v-10.75c-1.67,3.53-4.13,6.26-7.39,8.21-3.27,1.95-7.11,2.93-11.53,2.93-6.53,0-11.65-1.83-15.36-5.48-3.72-3.64-5.57-8.89-5.57-15.75v-29.28h4.8v28.9c0,5.63,1.44,9.92,4.32,12.86,2.88,2.95,6.95,4.42,12.19,4.42,5.63,0,10.1-1.76,13.39-5.28,3.29-3.52,4.95-8.26,4.95-14.21v-26.69h4.8Z"/>
      <path class="cls-1" d="M1208.19,918.51c3.65,3.65,5.47,8.9,5.47,15.75v29.29h-4.8v-28.9c0-5.63-1.42-9.92-4.27-12.87-2.85-2.94-6.83-4.41-11.95-4.41-5.89,0-10.53,1.76-13.93,5.28-3.39,3.52-5.08,8.26-5.08,14.21v26.7h-4.8v-50.12h4.61v10.85c1.73-3.52,4.31-6.28,7.73-8.26,3.43-1.99,7.48-2.98,12.15-2.98,6.28,0,11.23,1.83,14.89,5.47"/>
      <path class="cls-1" d="M1234.12,913.42h4.8v50.12h-4.8v-50.12ZM1233.73,900.12c-.77-.74-1.15-1.65-1.15-2.74s.39-2.01,1.15-2.79c.77-.77,1.7-1.15,2.79-1.15s2.01.37,2.78,1.1c.77.73,1.15,1.65,1.15,2.73s-.39,2.02-1.15,2.79c-.77.77-1.7,1.15-2.78,1.15s-2.02-.37-2.79-1.1"/>
      <path class="cls-1" d="M1266.66,960.66c-3.84-2.18-6.85-5.2-9.02-9.07-2.18-3.87-3.27-8.25-3.27-13.11s1.09-9.33,3.27-13.2c2.17-3.87,5.18-6.88,9.02-9.02,3.84-2.15,8.19-3.22,13.06-3.22,4.03,0,7.7.79,10.99,2.35,3.3,1.57,5.97,3.86,8.02,6.87l-3.55,2.6c-1.79-2.5-4.02-4.37-6.67-5.62-2.66-1.25-5.59-1.87-8.79-1.87-3.91,0-7.41.88-10.52,2.64-3.11,1.76-5.54,4.24-7.29,7.44-1.76,3.2-2.64,6.88-2.64,11.04s.88,7.84,2.64,11.04c1.76,3.2,4.19,5.68,7.29,7.44,3.1,1.76,6.61,2.64,10.52,2.64,3.2,0,6.12-.62,8.79-1.87,2.65-1.25,4.88-3.12,6.67-5.62l3.55,2.59c-2.05,3.01-4.72,5.3-8.02,6.87-3.3,1.57-6.96,2.36-10.99,2.36-4.87,0-9.22-1.09-13.06-3.27"/>
      <path class="cls-1" d="M1335.94,957.1c2.91-1.92,5.1-4.7,6.58-8.35v-9.41h-17.09c-4.93,0-8.5.9-10.71,2.69-2.21,1.8-3.31,4.26-3.31,7.39s1.21,5.84,3.65,7.73c2.43,1.89,5.85,2.83,10.27,2.83,4.16,0,7.7-.96,10.61-2.88M1342.32,917.79c3.33,3.17,4.99,7.83,4.99,13.97v31.78h-4.61v-8.93c-1.6,2.94-3.93,5.23-7.01,6.86-3.07,1.63-6.75,2.45-11.04,2.45-5.57,0-9.97-1.31-13.21-3.94-3.23-2.62-4.85-6.08-4.85-10.37s1.49-7.54,4.46-10.12c2.98-2.6,7.73-3.89,14.26-3.89h17.19v-4.03c0-4.67-1.27-8.22-3.79-10.66-2.53-2.43-6.23-3.65-11.09-3.65-3.33,0-6.52.58-9.55,1.73-3.04,1.15-5.62,2.69-7.73,4.61l-2.4-3.46c2.49-2.24,5.5-3.99,9.02-5.23,3.52-1.25,7.2-1.87,11.04-1.87,6.21,0,10.97,1.58,14.31,4.75"/>
      <path class="cls-1" d="M1392.64,960.37c-1.22,1.15-2.74,2.03-4.56,2.64-1.82.61-3.73.92-5.71.92-4.36,0-7.72-1.2-10.08-3.6-2.37-2.4-3.56-5.75-3.56-10.03v-32.74h-9.22v-4.13h9.22v-10.95h4.8v10.95h15.94v4.13h-15.94v32.26c0,3.26.78,5.75,2.35,7.44,1.57,1.7,3.89,2.54,6.97,2.54s5.73-.93,7.78-2.78l2.02,3.36Z"/>
      <path class="cls-1" d="M1406.56,913.42h4.8v50.12h-4.8v-50.12ZM1406.18,900.12c-.77-.74-1.15-1.65-1.15-2.74s.39-2.01,1.15-2.79c.77-.77,1.7-1.15,2.79-1.15s2.01.37,2.78,1.1c.77.73,1.16,1.65,1.16,2.73s-.39,2.02-1.16,2.79c-.77.77-1.69,1.15-2.78,1.15s-2.02-.37-2.79-1.1"/>
      <path class="cls-1" d="M1462.21,956.91c3.04-1.79,5.44-4.29,7.2-7.49,1.76-3.2,2.64-6.85,2.64-10.95s-.88-7.74-2.64-10.95c-1.76-3.2-4.16-5.7-7.2-7.49-3.04-1.79-6.48-2.69-10.32-2.69s-7.28.9-10.32,2.69c-3.04,1.79-5.44,4.29-7.2,7.49-1.76,3.21-2.64,6.86-2.64,10.95s.88,7.75,2.64,10.95c1.76,3.2,4.16,5.7,7.2,7.49,3.04,1.8,6.48,2.69,10.32,2.69s7.28-.89,10.32-2.69M1439.06,960.66c-3.81-2.18-6.8-5.2-8.98-9.07-2.17-3.87-3.27-8.25-3.27-13.11s1.09-9.23,3.27-13.1c2.18-3.87,5.17-6.9,8.98-9.07,3.81-2.18,8.08-3.27,12.82-3.27s9.01,1.09,12.82,3.27c3.81,2.17,6.8,5.2,8.98,9.07,2.17,3.87,3.27,8.24,3.27,13.1s-1.09,9.24-3.27,13.11c-2.17,3.87-5.17,6.9-8.98,9.07-3.81,2.17-8.08,3.27-12.82,3.27s-9.01-1.09-12.82-3.27"/>
      <path class="cls-1" d="M1531.78,918.51c3.65,3.65,5.47,8.9,5.47,15.75v29.29h-4.8v-28.9c0-5.63-1.42-9.92-4.27-12.87-2.85-2.94-6.83-4.41-11.95-4.41-5.89,0-10.53,1.76-13.92,5.28-3.39,3.52-5.09,8.26-5.09,14.21v26.7h-4.8v-50.12h4.61v10.85c1.73-3.52,4.31-6.28,7.73-8.26,3.43-1.99,7.48-2.98,12.15-2.98,6.27,0,11.23,1.83,14.88,5.47"/>
      <path class="cls-1" d="M103.21,353.55c-15.96-6.97-28.31-16.91-37.05-29.83-8.74-12.93-13.11-27.87-13.11-44.85v-5.32c0-1.77.5-3.16,1.51-4.18,1.01-1.01,2.41-1.52,4.19-1.52h58.9c1.77,0,3.16.51,4.18,1.52,1.01,1.02,1.52,2.41,1.52,4.18v2.27c0,7.11,3.74,13.38,11.21,18.82,7.47,5.46,17.42,8.17,29.84,8.17,9.37,0,16.08-1.95,20.14-5.89,4.06-3.92,6.09-8.29,6.09-13.12,0-5.57-2.53-9.74-7.61-12.54-5.07-2.78-14.32-6.21-27.74-10.25l-11.02-3.04c-25.08-7.6-46.11-17.73-63.08-30.41-16.98-12.66-25.46-31.02-25.46-55.09,0-15.97,4.31-30.09,12.92-42.39,8.61-12.29,20.46-21.72,35.54-28.31,15.07-6.59,31.98-9.87,50.74-9.87,19.76,0,37.68,3.68,53.77,11.01,16.09,7.35,28.76,17.74,38,31.17,9.25,13.44,13.88,28.76,13.88,45.98v3.41c0,1.78-.51,3.18-1.52,4.2-1.01,1-2.42,1.52-4.18,1.52h-58.91c-1.77,0-3.17-.52-4.18-1.52-1.01-1.02-1.51-2.42-1.51-4.2v-.37c0-7.6-3.42-14.5-10.26-20.72-6.85-6.2-16.09-9.3-27.75-9.3-8.11,0-14.51,1.65-19.19,4.94-4.69,3.29-7.04,7.86-7.04,13.69,0,4.55,1.71,8.42,5.14,11.59,3.41,3.16,8.67,6.21,15.77,9.12,7.09,2.91,17.99,6.65,32.68,11.21,2.02.75,10.95,3.48,26.8,8.17,15.82,4.69,29.07,13.18,39.71,25.46,10.64,12.3,15.96,27.18,15.96,44.66s-4.32,31.61-12.92,43.9c-8.62,12.29-20.66,21.72-36.11,28.31-15.46,6.59-33.44,9.88-53.97,9.88s-39.9-3.48-55.87-10.45"/>
      <path class="cls-1" d="M335.22,352.21c-15.83-7.84-28.06-18.99-36.67-33.43-8.62-14.45-12.93-31.17-12.93-50.18V100.62c0-1.77.51-3.16,1.52-4.18,1.01-1,2.4-1.52,4.18-1.52h60.04c1.77,0,3.17.52,4.19,1.52,1,1.02,1.52,2.41,1.52,4.18v167.98c0,10.39,2.97,18.69,8.93,24.89,5.95,6.22,13.87,9.31,23.75,9.31s17.41-3.16,23.37-9.51c5.95-6.33,8.93-14.56,8.93-24.7V100.62c0-1.77.5-3.16,1.51-4.18,1.01-1,2.41-1.52,4.19-1.52h60.05c1.76,0,3.17.52,4.17,1.52,1.01,1.02,1.52,2.41,1.52,4.18v167.98c0,19-4.31,35.73-12.93,50.18-8.61,14.44-20.78,25.6-36.48,33.43-15.71,7.86-33.83,11.79-54.34,11.79s-38.71-3.92-54.54-11.79"/>
      <path class="cls-1" d="M685.43,105.76c13.68,7.22,24.26,17.49,31.73,30.78,7.47,13.31,11.22,28.57,11.22,45.79s-3.93,31.93-11.79,44.85c-7.85,12.93-18.88,22.93-33.06,30.02-14.2,7.1-30.54,10.64-49.03,10.64h-40.28c-1.28,0-1.9.64-1.9,1.9v85.5c0,1.78-.52,3.18-1.52,4.17-1.02,1.02-2.42,1.52-4.19,1.52h-60.04c-1.78,0-3.17-.5-4.18-1.52-1.01-1-1.52-2.39-1.52-4.17V100.62c0-1.77.51-3.16,1.52-4.18,1.01-1.01,2.4-1.52,4.18-1.52h111.35c17.98,0,33.82,3.61,47.5,10.83M648.76,203.42c5.7-4.94,8.54-11.46,8.54-19.57s-2.84-15.07-8.54-20.14c-5.71-5.06-13.25-7.61-22.61-7.61h-31.92c-1.28,0-1.9.64-1.9,1.91v50.92c0,1.28.62,1.9,1.9,1.9h31.92c9.36,0,16.91-2.47,22.61-7.42"/>
      <path class="cls-1" d="M287.53,660.6c-1.02-1.01-1.52-2.41-1.52-4.18v-254.63c0-1.77.5-3.17,1.52-4.19,1.01-1,2.41-1.52,4.18-1.52h97.67c20.53,0,38.7,3.55,54.54,10.66,15.83,7.09,28.05,17.09,36.67,30.02,8.61,12.92,12.93,27.88,12.93,44.85v95.01c0,16.98-4.32,31.92-12.93,44.84-8.62,12.93-20.84,22.93-36.67,30.02-15.84,7.1-34.01,10.65-54.54,10.65h-97.67c-1.77,0-3.17-.5-4.18-1.52M359.35,600.94h32.68c8.61,0,15.71-3.36,21.29-10.08,5.56-6.72,8.48-15.52,8.73-26.41v-70.69c0-10.9-2.79-19.7-8.35-26.41-5.58-6.71-12.93-10.08-22.05-10.08h-32.3c-1.27,0-1.9.64-1.9,1.9v139.86c0,1.26.63,1.9,1.9,1.9"/>
      <path class="cls-1" d="M712.03,455.76c-1.01,1.01-2.41,1.51-4.17,1.51h-113.65c-1.26,0-1.89.64-1.89,1.91v35.72c0,1.27.63,1.9,1.89,1.9h70.32c1.77,0,3.16.5,4.18,1.51,1,1.02,1.51,2.42,1.51,4.18v49.41c0,1.77-.51,3.16-1.51,4.18-1.02,1.02-2.41,1.52-4.18,1.52h-70.32c-1.26,0-1.89.64-1.89,1.9v39.52c0,1.27.63,1.9,1.89,1.9h113.65c1.76,0,3.16.51,4.17,1.52,1.01,1.01,1.52,2.4,1.52,4.17v49.79c0,1.78-.51,3.17-1.52,4.17-1.01,1.02-2.41,1.52-4.17,1.52h-181.29c-1.77,0-3.17-.5-4.17-1.52-1.02-1-1.52-2.39-1.52-4.17v-254.63c0-1.77.5-3.17,1.52-4.17,1-1.01,2.4-1.53,4.17-1.53h181.29c1.76,0,3.16.51,4.17,1.53,1.01,1.01,1.52,2.4,1.52,4.17v49.78c0,1.79-.51,3.17-1.52,4.19"/>
      <path class="cls-1" d="M50.26,956.29c-15.93-8.14-28.28-19.68-37.07-34.57-8.79-14.91-13.19-32.17-13.19-51.79v-77.2c0-19.37,4.4-36.43,13.19-51.21,8.79-14.78,21.14-26.25,37.07-34.39,15.92-8.15,34.33-12.23,55.21-12.23s39.31,3.83,55.23,11.47c15.92,7.64,28.29,18.41,37.07,32.29,8.79,13.87,13.19,29.99,13.19,48.34,0,2.29-1.91,3.69-5.74,4.19l-60.37,3.83h-1.15c-3.06,0-4.59-1.4-4.59-4.21,0-10.44-3.05-18.77-9.17-25.02-6.11-6.24-14.27-9.37-24.46-9.37s-18.33,3.13-24.45,9.37c-6.11,6.25-9.17,14.58-9.17,25.02v82.16c0,10.19,3.06,18.41,9.17,24.65,6.12,6.25,14.27,9.36,24.45,9.36s18.35-3.11,24.46-9.36c6.12-6.24,9.17-14.46,9.17-24.65,0-1.53.51-2.68,1.52-3.44,1.02-.77,2.42-1.01,4.22-.77l60.37,3.06c3.83.26,5.74,1.54,5.74,3.83,0,18.34-4.4,34.52-13.19,48.54-8.78,14.02-21.15,24.9-37.07,32.66-15.92,7.78-34.33,11.67-55.23,11.67s-39.29-4.08-55.21-12.24"/>
      <path class="cls-1" d="M283.35,955.81c-16.1-8.48-28.57-20.4-37.44-35.73-8.87-15.32-13.3-33.13-13.3-53.39v-71.46c0-19.77,4.43-37.24,13.3-52.44,8.87-15.2,21.34-26.98,37.44-35.35,16.09-8.36,34.65-12.55,55.67-12.55s39.97,4.19,56.06,12.55c16.09,8.37,28.57,20.15,37.44,35.35,8.86,15.2,13.3,32.67,13.3,52.44v71.46c0,20.27-4.43,38.07-13.3,53.39-8.87,15.33-21.35,27.25-37.44,35.73-16.09,8.48-34.78,12.73-56.06,12.73s-39.58-4.24-55.67-12.73M364.68,896.89c6.46-6.96,9.69-16.26,9.69-27.92v-74.5c0-11.66-3.24-20.96-9.69-27.94-6.46-6.96-15.01-10.44-25.66-10.44s-18.81,3.48-25.27,10.44c-6.46,6.98-9.69,16.28-9.69,27.94v74.5c0,11.65,3.24,20.96,9.69,27.92,6.46,6.98,14.88,10.45,25.27,10.45s19.2-3.47,25.66-10.45"/>
      <path class="cls-1" d="M648.76,697.94h59.28c1.77,0,3.18.51,4.19,1.52,1.01,1,1.52,2.42,1.52,4.17v254.63c0,1.78-.51,3.18-1.52,4.19-1.01,1.01-2.42,1.51-4.19,1.51h-60.04c-1.78,0-3.17-.5-4.18-1.51-1.01-1.01-1.52-2.41-1.52-4.19v-137.95c0-1.01-.25-1.58-.75-1.71-.51-.13-1.02.19-1.52.95l-25.85,42.19c-1.52,2.53-3.81,3.8-6.84,3.8h-28.88c-3.04,0-5.32-1.26-6.85-3.8l-25.85-42.19c-.51-.76-1.01-1.08-1.51-.95-.51.13-.76.7-.76,1.71v137.95c0,1.78-.51,3.18-1.52,4.19-1.02,1.01-2.41,1.51-4.18,1.51h-60.04c-1.78,0-3.18-.5-4.19-1.51-1.01-1.01-1.52-2.41-1.52-4.19v-254.63c0-1.76.51-3.17,1.52-4.17,1.01-1.01,2.41-1.52,4.19-1.52h59.29c3.03,0,5.32,1.26,6.84,3.81l47.89,77.14c.76,1.51,1.52,1.51,2.27,0l47.9-77.14c1.51-2.54,3.8-3.81,6.84-3.81"/>
    </g>
  </g>
  <g>
    <path class="cls-1" d="M808.3,514.52c-32.02,0-58.08-26.05-58.08-58.08s26.06-58.08,58.08-58.08v12.51c-25.13,0-45.57,20.44-45.57,45.57s20.44,45.57,45.57,45.57v12.51Z"/>
    <path class="cls-1" d="M822.04,514.52v-12.51c25.13,0,45.57-20.44,45.57-45.57s-20.44-45.57-45.57-45.57v-12.51c32.03,0,58.08,26.06,58.08,58.08s-26.05,58.08-58.08,58.08"/>
    <path class="cls-1" d="M827.14,481.29c-5.29,4.36-11.51,7.24-19.04,7.24-12.44,0-21.82-7.24-21.82-18.76v-.19c0-8.26,4.46-14.11,12.63-17.83-3.16-4.46-4.55-8.54-4.55-13v-.19c0-8.91,7.15-17.09,19.69-17.09,11.05,0,18.29,7.24,18.29,16.35v.19c0,8.73-5.57,13.84-13.65,16.99l8.64,8.64c2.14-3.34,4.27-7.15,6.32-11.14l10.49,5.76c-2.51,4.55-5.3,9.38-8.54,13.74l9.57,9.57-10.49,7.33-7.52-7.61ZM819.16,473.12l-12.44-12.63c-4.27,2.23-6.04,5.39-6.04,8.54v.18c0,4.55,3.81,7.61,9.1,7.61,3.25,0,6.41-1.39,9.38-3.71M819.9,438.85v-.19c0-3.72-2.51-6.04-6.13-6.04-3.81,0-6.31,2.69-6.31,6.59v.19c0,2.88,1.11,5.01,3.81,8.08,5.66-2.14,8.64-4.55,8.64-8.64"/>
  </g>
</svg>